<?xml version="1.0" encoding="UTF-8" standalone="no"?>
<!-- Created with Inkscape (http://www.inkscape.org/) -->

<svg
   xmlns:dc="http://purl.org/dc/elements/1.1/"
   xmlns:cc="http://creativecommons.org/ns#"
   xmlns:rdf="http://www.w3.org/1999/02/22-rdf-syntax-ns#"
   xmlns:svg="http://www.w3.org/2000/svg"
   xmlns="http://www.w3.org/2000/svg"
   xmlns:xlink="http://www.w3.org/1999/xlink"
   xmlns:sodipodi="http://sodipodi.sourceforge.net/DTD/sodipodi-0.dtd"
   xmlns:inkscape="http://www.inkscape.org/namespaces/inkscape"
   width="204mm"
   height="204mm"
   viewBox="0 0 204 204"
   version="1.1"
   id="svg840"
   inkscape:version="0.92.2 (5c3e80d, 2017-08-06)"
   sodipodi:docname="lava.svg"
   inkscape:export-filename="C:\Users\Kitsune\Desktop\project\projectGraphics\lava.png"
   inkscape:export-xdpi="63.75"
   inkscape:export-ydpi="63.75">
  <defs
     id="defs834">
    <linearGradient
       inkscape:collect="always"
       id="linearGradient969">
      <stop
         style="stop-color:#ee8924;stop-opacity:1"
         offset="0"
         id="stop965" />
      <stop
         style="stop-color:#fa4f05;stop-opacity:1"
         offset="1"
         id="stop967" />
    </linearGradient>
    <radialGradient
       inkscape:collect="always"
       xlink:href="#linearGradient969"
       id="radialGradient971"
       cx="107.43687"
       cy="101.10648"
       fx="107.43687"
       fy="101.10648"
       r="74.207013"
       gradientTransform="matrix(0.7671395,0.10644601,-0.11038653,0.79553823,36.178595,9.2361844)"
       gradientUnits="userSpaceOnUse" />
  </defs>
  <sodipodi:namedview
     id="base"
     pagecolor="#ffffff"
     bordercolor="#666666"
     borderopacity="1.0"
     inkscape:pageopacity="0.0"
     inkscape:pageshadow="2"
     inkscape:zoom="0.70003571"
     inkscape:cx="291.25994"
     inkscape:cy="318.35005"
     inkscape:document-units="mm"
     inkscape:current-layer="layer3"
     showgrid="false"
     inkscape:window-width="1920"
     inkscape:window-height="1051"
     inkscape:window-x="-9"
     inkscape:window-y="-9"
     inkscape:window-maximized="1"
     fit-margin-top="0"
     fit-margin-left="0"
     fit-margin-right="0"
     fit-margin-bottom="0" />
  <metadata
     id="metadata837">
    <rdf:RDF>
      <cc:Work
         rdf:about="">
        <dc:format>image/svg+xml</dc:format>
        <dc:type
           rdf:resource="http://purl.org/dc/dcmitype/StillImage" />
        <dc:title></dc:title>
      </cc:Work>
    </rdf:RDF>
  </metadata>
  <g
     inkscape:label="Layer 1"
     inkscape:groupmode="layer"
     id="layer1"
     transform="translate(-2.8901689,-41.595218)"
     sodipodi:insensitive="true">
    <rect
       style="fill:#a44300;fill-opacity:1;stroke:none;stroke-width:0.54240227;stroke-miterlimit:4;stroke-dasharray:none;stroke-opacity:1"
       id="rect844"
       width="60.159561"
       height="27.970238"
       x="101.91354"
       y="41.110111" />
    <rect
       style="fill:#a44f2a;fill-opacity:1;stroke:none;stroke-width:0.76228672;stroke-miterlimit:4;stroke-dasharray:none;stroke-opacity:1"
       id="rect844-66"
       width="204.48511"
       height="16.252975"
       x="2.8901689"
       y="69.147171" />
    <rect
       style="fill:#a42000;fill-opacity:1;stroke:none;stroke-width:0.93721843;stroke-miterlimit:4;stroke-dasharray:none;stroke-opacity:1"
       id="rect844-3"
       width="204.48511"
       height="24.568453"
       x="2.8901689"
       y="109.9686" />
    <rect
       style="fill:#a44300;fill-opacity:1;stroke:none;stroke-width:0.89291507;stroke-miterlimit:4;stroke-dasharray:none;stroke-opacity:1"
       id="rect844-62"
       width="204.48511"
       height="22.300594"
       x="3.023838"
       y="134.47021" />
    <rect
       style="fill:#a45b00;fill-opacity:1;stroke:none;stroke-width:0.71166664;stroke-miterlimit:4;stroke-dasharray:none;stroke-opacity:1"
       id="rect844-8"
       width="103.56548"
       height="27.970238"
       x="15.119068"
       y="156.77081" />
    <rect
       style="fill:#a44800;fill-opacity:1;stroke:none;stroke-width:0.85424221;stroke-miterlimit:4;stroke-dasharray:none;stroke-opacity:1"
       id="rect844-34"
       width="204.48511"
       height="20.410713"
       x="3.0238409"
       y="184.74106" />
    <rect
       style="fill:#bc4300;fill-opacity:1;stroke:none;stroke-width:0.55476421;stroke-miterlimit:4;stroke-dasharray:none;stroke-opacity:1"
       id="rect844-9"
       width="62.933025"
       height="27.970238"
       x="3.0238285"
       y="205.15176" />
    <rect
       style="fill:#a44333;fill-opacity:1;stroke:none;stroke-width:0.66779184;stroke-miterlimit:4;stroke-dasharray:none;stroke-opacity:1"
       id="rect844-88"
       width="204.48511"
       height="12.473214"
       x="3.02384"
       y="233.12201" />
    <rect
       style="fill:#a45b45;fill-opacity:1;stroke:none;stroke-width:0.65907574;stroke-miterlimit:4;stroke-dasharray:none;stroke-opacity:1"
       id="rect844-8-1"
       width="88.824409"
       height="27.970238"
       x="118.68454"
       y="156.77081" />
    <rect
       style="fill:#a45b45;fill-opacity:1;stroke:none;stroke-width:0.2432071;stroke-miterlimit:4;stroke-dasharray:none;stroke-opacity:1"
       id="rect844-8-1-4"
       width="12.095231"
       height="27.970238"
       x="3.0238409"
       y="156.77083" />
    <rect
       style="fill:#b45600;fill-opacity:1;stroke:none;stroke-width:0.5175879;stroke-miterlimit:4;stroke-dasharray:none;stroke-opacity:1"
       id="rect844-2-0"
       width="62.366051"
       height="24.568451"
       x="2.8901689"
       y="-109.9686"
       transform="scale(1,-1)" />
    <rect
       style="fill:#b44200;fill-opacity:1;stroke:none;stroke-width:0.71230698;stroke-miterlimit:4;stroke-dasharray:none;stroke-opacity:1"
       id="rect844-2-0-6"
       width="118.11754"
       height="24.568451"
       x="65.256218"
       y="-109.9686"
       transform="scale(1,-1)" />
    <rect
       style="fill:#b45600;fill-opacity:1;stroke:none;stroke-width:0.32109192;stroke-miterlimit:4;stroke-dasharray:none;stroke-opacity:1"
       id="rect844-2-0-8"
       width="24.001522"
       height="24.568451"
       x="183.37375"
       y="-109.9686"
       transform="scale(1,-1)" />
    <rect
       style="fill:#bc3300;fill-opacity:1;stroke:none;stroke-width:0.83200759;stroke-miterlimit:4;stroke-dasharray:none;stroke-opacity:1"
       id="rect844-9-1"
       width="141.55209"
       height="27.970238"
       x="65.956856"
       y="205.15176" />
    <rect
       style="fill:#8c4300;fill-opacity:1;stroke:none;stroke-width:0.69577539;stroke-miterlimit:4;stroke-dasharray:none;stroke-opacity:1"
       id="rect844-0"
       width="98.991928"
       height="27.970238"
       x="2.9216235"
       y="41.110119" />
    <rect
       style="fill:#8c4300;fill-opacity:1;stroke:none;stroke-width:0.47075814;stroke-miterlimit:4;stroke-dasharray:none;stroke-opacity:1"
       id="rect844-0-8"
       width="45.316608"
       height="27.970238"
       x="162.0731"
       y="41.110111" />
  </g>
  <g
     inkscape:groupmode="layer"
     id="layer3"
     inkscape:label="Layer 3">
    <path
       style="fill:#847779;fill-opacity:1;stroke:#002400;stroke-width:0.09205066;stroke-linecap:butt;stroke-linejoin:miter;stroke-miterlimit:4;stroke-dasharray:none;stroke-opacity:1"
       d="m 186.32581,33.004463 c 0,0 -13.59655,25.015142 -21.19462,18.407364 -7.59808,-6.60778 -18.79525,-25.487117 -18.79525,-25.487117 0,0 29.5925,-14.631499 39.98987,7.079753 z"
       id="path836-6"
       inkscape:connector-curvature="0"
       sodipodi:nodetypes="cscc" />
    <path
       style="fill:#847779;fill-opacity:1;stroke:#002400;stroke-width:0.12237719;stroke-linecap:butt;stroke-linejoin:miter;stroke-miterlimit:4;stroke-dasharray:none;stroke-opacity:1"
       d="m 162.89504,31.954165 c 0,0 -15.01147,26.894391 -28.17729,24.471756 -38.197621,-7.028723 -27.19258,-24.771365 -27.19258,-24.771365 0,0 41.54705,-28.5645089 55.36987,0.299609 z"
       id="path836-5-2"
       inkscape:connector-curvature="0"
       sodipodi:nodetypes="cscc" />
    <path
       style="fill:#847779;fill-opacity:1;stroke:#002400;stroke-width:0.09205066;stroke-linecap:butt;stroke-linejoin:miter;stroke-miterlimit:4;stroke-dasharray:none;stroke-opacity:1"
       d="m 113.46337,34.199492 c 0,0 -5.78258,10.901053 -14.973674,15.014111 -12.405192,5.551386 -20.491877,-18.417838 -20.491877,-18.417838 0,0 25.068171,-18.307523 35.465551,3.403727 z"
       id="path836-3-9"
       inkscape:connector-curvature="0"
       sodipodi:nodetypes="cscc" />
    <path
       style="fill:#847779;fill-opacity:1;stroke:#002400;stroke-width:0.09205066;stroke-linecap:butt;stroke-linejoin:miter;stroke-miterlimit:4;stroke-dasharray:none;stroke-opacity:1"
       d="m 85.186235,37.592745 c 0,0 -13.596549,25.015141 -21.194624,18.407363 C 56.393539,49.39233 45.196368,30.51299 45.196368,30.51299 c 0,0 29.592502,-14.631495 39.989867,7.079755 z"
       id="path836-37-0"
       inkscape:connector-curvature="0"
       sodipodi:nodetypes="cscc" />
    <path
       style="fill:#847779;fill-opacity:1;stroke:#002400;stroke-width:0.07774326;stroke-linecap:butt;stroke-linejoin:miter;stroke-miterlimit:4;stroke-dasharray:none;stroke-opacity:1"
       d="m 65.675039,33.04943 c 0,0 -13.596551,17.843273 -21.194624,13.12995 C 36.88234,41.466057 26.440293,46.886753 25.68517,27.999445 25.14843,14.574352 55.277671,17.562815 65.675039,33.04943 Z"
       id="path836-1-4"
       inkscape:connector-curvature="0"
       sodipodi:nodetypes="cssc" />
    <rect
       style="fill:url(#radialGradient971);fill-opacity:1;stroke:#002400;stroke-width:0.087;stroke-linejoin:miter;stroke-miterlimit:4;stroke-dasharray:none;stroke-dashoffset:0;stroke-opacity:1"
       id="rect920-4"
       width="148.32703"
       height="128.01556"
       x="33.273354"
       y="37.098701" />
    <path
       style="fill:#847779;fill-opacity:1;stroke:none;stroke-width:0.07774326;stroke-linecap:butt;stroke-linejoin:miter;stroke-miterlimit:4;stroke-dasharray:none;stroke-opacity:1"
       d="m 53.935508,106.81252 c 0,0 -13.59655,17.84327 -21.194623,13.12995 -7.598075,-4.71333 -18.040122,0.70737 -18.795245,-18.17994 -0.53674,-13.425091 29.5925,-10.436628 39.989868,5.04999 z"
       id="path836-1-4-8"
       inkscape:connector-curvature="0"
       sodipodi:nodetypes="cssc" />
    <path
       style="fill:#847779;fill-opacity:1;stroke:#002400;stroke-width:0.09205066;stroke-linecap:butt;stroke-linejoin:miter;stroke-miterlimit:4;stroke-dasharray:none;stroke-opacity:1"
       d="m 52.339526,46.519379 c 0,0 -13.596549,25.015141 -21.194624,18.407362 C 23.546829,58.318965 6.7845551,48.409455 12.349659,39.439624 19.486497,27.936473 41.94216,24.808129 52.339526,46.519379 Z"
       id="path836-37-0-0"
       inkscape:connector-curvature="0"
       sodipodi:nodetypes="csac" />
    <path
       style="fill:#847779;fill-opacity:1;stroke:none;stroke-width:0.05746889;stroke-linecap:butt;stroke-linejoin:miter;stroke-miterlimit:4;stroke-dasharray:none;stroke-opacity:1"
       d="m 84.021323,45.997314 c 0,0 7.049458,-12.629728 13.232185,-11.492047 17.937772,3.300721 12.769762,11.632745 12.769762,11.632745 0,0 -19.510685,13.414026 -26.001947,-0.140698 z"
       id="path836-5-20"
       inkscape:connector-curvature="0"
       sodipodi:nodetypes="cscc" />
    <path
       style="fill:#847779;fill-opacity:1;stroke:#002400;stroke-width:0.03873462;stroke-linecap:butt;stroke-linejoin:miter;stroke-miterlimit:4;stroke-dasharray:none;stroke-opacity:1"
       d="m 67.173658,114.52925 c 0,0 4.216895,-11.45238 8.384116,-10.68557 12.090244,2.22472 14.219322,12.38394 14.219322,12.38394 0,0 -18.228261,7.43765 -22.603438,-1.69834 z"
       id="path836-5-28"
       inkscape:connector-curvature="0"
       sodipodi:nodetypes="csccc" />
    <path
       style="fill:#847779;fill-opacity:1;stroke:#002400;stroke-width:0.03873462;stroke-linecap:butt;stroke-linejoin:miter;stroke-miterlimit:4;stroke-dasharray:none;stroke-opacity:1"
       d="m 138.69038,119.67685 c 0,0 5.3472,10.97027 1.90943,13.44727 -9.97388,7.18644 -18.78004,1.6915 -18.78004,1.6915 0,0 7.24834,-18.30437 16.87059,-15.13879 z"
       id="path836-5-28-3"
       inkscape:connector-curvature="0"
       sodipodi:nodetypes="csccc" />
    <path
       style="fill:#deda96;fill-opacity:1;stroke:none;stroke-width:0.03873462;stroke-linecap:butt;stroke-linejoin:miter;stroke-miterlimit:4;stroke-dasharray:none;stroke-opacity:1"
       d="m 67.804575,79.336428 c 0,0 -0.860967,-6.90903 8.651377,-6.94399 12.29314,-0.0452 9.67597,7.573336 9.67597,7.573336 0,0 -13.417658,3.696034 -18.327347,-0.629346 z"
       id="path836-5-28-4"
       inkscape:connector-curvature="0"
       sodipodi:nodetypes="csccc" />
    <path
       style="fill:#deda96;fill-opacity:1;stroke:none;stroke-width:0.02297675;stroke-linecap:butt;stroke-linejoin:miter;stroke-miterlimit:4;stroke-dasharray:none;stroke-opacity:1"
       d="m 107.22307,114.61788 c 0,0 -0.51072,-4.09833 5.13185,-4.11908 7.29209,-0.0269 5.73963,4.49238 5.73963,4.49238 0,0 -7.95914,2.19243 -10.87148,-0.3733 z"
       id="path836-5-28-4-9"
       inkscape:connector-curvature="0"
       sodipodi:nodetypes="csccc" />
    <path
       style="fill:#847779;fill-opacity:1;stroke:none;stroke-width:0.03577035;stroke-linecap:butt;stroke-linejoin:miter;stroke-miterlimit:4;stroke-dasharray:none;stroke-opacity:1"
       d="m 68.66445,41.497261 c 0,0 4.338149,-6.811109 8.236106,-7.152994 25.329564,-2.221627 14.629679,6.973313 14.629679,6.973313 0,0 -18.82543,8.616546 -22.865785,0.179676 z"
       id="path836-5-20-3"
       inkscape:connector-curvature="0"
       sodipodi:nodetypes="csccc" />
    <path
       style="fill:#847779;fill-opacity:1;stroke:#002400;stroke-width:0.03944672;stroke-linecap:butt;stroke-linejoin:miter;stroke-miterlimit:4;stroke-dasharray:none;stroke-opacity:1"
       d="m 38.224952,39.933219 c 0,0 6.20894,-4.541525 10.106897,-4.957297 25.329563,-2.701759 32.001312,5.273296 32.001312,5.273296 0,0 -30.317433,13.953059 -34.357788,3.692834 z"
       id="path836-5-20-3-2"
       inkscape:connector-curvature="0"
       sodipodi:nodetypes="csccc" />
    <path
       style="fill:#847779;fill-opacity:1;stroke:none;stroke-width:0.03577035;stroke-linecap:butt;stroke-linejoin:miter;stroke-miterlimit:4;stroke-dasharray:none;stroke-opacity:1"
       d="m 100.76283,40.466396 c 0,0 4.33815,-6.811109 8.23611,-7.152994 25.32956,-2.221627 14.62968,6.973313 14.62968,6.973313 0,0 -18.82543,8.616546 -22.86579,0.179676 z"
       id="path836-5-20-3-3"
       inkscape:connector-curvature="0"
       sodipodi:nodetypes="csccc" />
    <path
       style="fill:#deda96;fill-opacity:1;stroke:none;stroke-width:0.03873462;stroke-linecap:butt;stroke-linejoin:miter;stroke-miterlimit:4;stroke-dasharray:none;stroke-opacity:1"
       d="m 130.95175,66.955842 c 0,0 -2.74168,-4.070437 6.76159,-4.48727 9.64744,-0.423157 6.65232,5.494573 6.65232,5.494573 0,0 -8.50422,3.318077 -13.41391,-1.007303 z"
       id="path836-5-28-4-2"
       inkscape:connector-curvature="0"
       sodipodi:nodetypes="cscc" />
  </g>
  <g
     inkscape:groupmode="layer"
     id="layer2"
     inkscape:label="Layer 2">
    <path
       style="fill:#847779;fill-opacity:1;stroke:#002400;stroke-width:0.087;stroke-linecap:butt;stroke-linejoin:miter;stroke-miterlimit:4;stroke-dasharray:none;stroke-opacity:1"
       d="m 27.953083,162.49371 c 0,0 12.850531,-23.6426 20.031711,-17.39738 7.18118,6.24522 17.763979,24.08868 17.763979,24.08868 0,0 -27.96881,13.82869 -37.79569,-6.6913 z"
       id="path836"
       inkscape:connector-curvature="0"
       sodipodi:nodetypes="cscc" />
    <path
       style="fill:#847779;fill-opacity:1;stroke:#002400;stroke-width:0.11566255;stroke-linecap:butt;stroke-linejoin:miter;stroke-miterlimit:4;stroke-dasharray:none;stroke-opacity:1"
       d="m 50.09824,163.48638 c 0,0 14.187823,-25.41874 26.631251,-23.12903 36.101779,6.64307 25.700569,23.4122 25.700569,23.4122 0,0 -39.267429,26.99722 -52.33182,-0.28317 z"
       id="path836-5"
       inkscape:connector-curvature="0"
       sodipodi:nodetypes="cscc" />
    <path
       style="fill:#847779;fill-opacity:1;stroke:#002400;stroke-width:0.087;stroke-linecap:butt;stroke-linejoin:miter;stroke-miterlimit:4;stroke-dasharray:none;stroke-opacity:1"
       d="m 96.817686,161.36425 c 0,0 5.465294,-10.30293 14.152084,-14.19031 11.72454,-5.24679 19.36752,17.40728 19.36752,17.40728 0,0 -23.69272,17.30302 -33.519604,-3.21697 z"
       id="path836-3"
       inkscape:connector-curvature="0"
       sodipodi:nodetypes="cscc" />
    <path
       style="fill:#847779;fill-opacity:1;stroke:#002400;stroke-width:0.087;stroke-linecap:butt;stroke-linejoin:miter;stroke-miterlimit:4;stroke-dasharray:none;stroke-opacity:1"
       d="m 123.54329,158.15718 c 0,0 12.85053,-23.6426 20.03171,-17.39738 7.18118,6.24522 17.76398,24.08868 17.76398,24.08868 0,0 -27.96881,13.82869 -37.79569,-6.6913 z"
       id="path836-37"
       inkscape:connector-curvature="0"
       sodipodi:nodetypes="cscc" />
    <path
       style="fill:#847779;fill-opacity:1;stroke:#002400;stroke-width:0.07347762;stroke-linecap:butt;stroke-linejoin:miter;stroke-miterlimit:4;stroke-dasharray:none;stroke-opacity:1"
       d="m 141.98394,162.45121 c 0,0 12.85053,-16.86424 20.03171,-12.40953 7.18118,4.45471 17.05029,-0.66856 17.76398,17.18243 0.50729,12.68848 -27.96881,9.86399 -37.79569,-4.7729 z"
       id="path836-1"
       inkscape:connector-curvature="0"
       sodipodi:nodetypes="cssc" />
    <path
       style="fill:#847779;fill-opacity:1;stroke:none;stroke-width:0.07057485;stroke-linecap:butt;stroke-linejoin:miter;stroke-miterlimit:4;stroke-dasharray:none;stroke-opacity:1"
       d="m 22.877883,150.93409 c 0,0 8.687538,-23.01342 13.54234,-16.93439 4.854802,6.07902 12.009252,23.44762 12.009252,23.44762 0,0 -18.908178,13.46067 -25.551592,-6.51323 z"
       id="path836-7"
       inkscape:connector-curvature="0"
       sodipodi:nodetypes="cscc" />
    <path
       style="fill:#847779;fill-opacity:1;stroke:#002400;stroke-width:0.07057486;stroke-linecap:butt;stroke-linejoin:miter;stroke-miterlimit:4;stroke-dasharray:none;stroke-opacity:1"
       d="m 13.412346,132.13759 c 0,0 7.696648,-20.48799 15.413131,-21.47774 8.863642,-1.13688 15.750836,20.24055 15.750836,20.24055 0,0 -18.640923,26.55621 -31.163967,1.23719 z"
       id="path836-7-8"
       inkscape:connector-curvature="0"
       sodipodi:nodetypes="cscc" />
    <path
       style="fill:#847779;fill-opacity:1;stroke:none;stroke-width:0.05732207;stroke-linecap:butt;stroke-linejoin:miter;stroke-miterlimit:4;stroke-dasharray:none;stroke-opacity:1"
       d="M 17.377819,74.741459 C 13.603515,67.158395 23.648837,58.152976 29.936016,57.351606 37.157871,56.431111 46.005673,66.748038 42.769367,73.739744 39.533061,80.73145 27.581253,95.241476 17.377819,74.741459 Z"
       id="path836-7-8-6"
       inkscape:connector-curvature="0"
       sodipodi:nodetypes="sszs" />
    <path
       style="fill:#8e7779;fill-opacity:1;stroke:#002400;stroke-width:0.05732207;stroke-linecap:butt;stroke-linejoin:miter;stroke-miterlimit:4;stroke-dasharray:none;stroke-opacity:1"
       d="m 18.641757,92.267978 c -3.774304,-7.583063 0.458562,-6.640451 12.558196,-17.389852 13.70317,3.949674 16.069658,9.396432 12.833351,16.388137 -3.236306,6.99171 -15.188114,21.501727 -25.391547,1.001715 z"
       id="path836-7-8-6-3"
       inkscape:connector-curvature="0"
       sodipodi:nodetypes="sczs" />
    <path
       style="fill:#847779;fill-opacity:1;stroke:#002400;stroke-width:0.11566256;stroke-linecap:butt;stroke-linejoin:miter;stroke-miterlimit:4;stroke-dasharray:none;stroke-opacity:1"
       d="m 157.9345,124.92041 c 0,0 29.10058,-0.75018 33.47335,11.1225 12.68662,34.44588 -7.04224,34.04493 -7.04224,34.04493 0,0 -43.24227,-20.02219 -26.43111,-45.16743 z"
       id="path836-5-5"
       inkscape:connector-curvature="0"
       sodipodi:nodetypes="cscc" />
    <path
       style="fill:#847779;fill-opacity:1;stroke:#002400;stroke-width:0.11566256;stroke-linecap:butt;stroke-linejoin:miter;stroke-miterlimit:4;stroke-dasharray:none;stroke-opacity:1"
       d="m 147.92823,123.21452 c 0,0 -3.18381,-31.031116 9.25962,-28.741404 36.10178,6.643074 43.0722,29.024574 43.0722,29.024574 0,0 -39.26743,26.99722 -52.33182,-0.28317 z"
       id="path836-5-0"
       inkscape:connector-curvature="0"
       sodipodi:nodetypes="cscc" />
    <path
       style="fill:#847779;fill-opacity:1;stroke:none;stroke-width:0.11566256;stroke-linecap:butt;stroke-linejoin:miter;stroke-miterlimit:4;stroke-dasharray:none;stroke-opacity:1"
       d="m 131.62563,88.203996 c -9.28121,-19.380542 25.94708,-2.969246 38.39051,-0.679536 36.10178,6.64307 23.29526,19.40336 23.29526,19.40336 0,0 -48.62138,8.55657 -61.68577,-18.723824 z"
       id="path836-5-6"
       inkscape:connector-curvature="0"
       sodipodi:nodetypes="sscs" />
    <path
       style="fill:#847779;fill-opacity:1;stroke:#002400;stroke-width:0.11566256;stroke-linecap:butt;stroke-linejoin:miter;stroke-miterlimit:4;stroke-dasharray:none;stroke-opacity:1"
       d="m 167.97242,75.910225 c -12.51244,-18.287419 -4.52009,-44.393908 7.92334,-42.104198 36.10178,6.643072 15.01033,57.353698 15.01033,57.353698 0,0 -9.86928,12.030895 -22.93367,-15.2495 z"
       id="path836-5-8"
       inkscape:connector-curvature="0"
       sodipodi:nodetypes="cscc" />
    <path
       style="fill:#847779;fill-opacity:1;stroke:none;stroke-width:0.04615267;stroke-linecap:butt;stroke-linejoin:miter;stroke-miterlimit:4;stroke-dasharray:none;stroke-opacity:1"
       d="m 117.48173,40.286715 c 0,0 14.83443,-9.8418 19.68923,-7.24208 4.8548,2.59973 12.00925,10.0275 12.00925,10.0275 0,0 -25.05507,5.75652 -31.69848,-2.78542 z"
       id="path836-7-0"
       inkscape:connector-curvature="0"
       sodipodi:nodetypes="cscc" />
    <path
       style="fill:#847779;fill-opacity:1;stroke:none;stroke-width:0.06949042;stroke-linecap:butt;stroke-linejoin:miter;stroke-miterlimit:4;stroke-dasharray:none;stroke-opacity:1"
       d="m 140.21551,40.306019 c -5.57618,-11.643889 18.79615,-9.534353 26.27221,-8.158688 21.69006,3.991177 13.99586,11.657597 13.99586,11.657597 0,0 -32.41895,12.891241 -40.26807,-3.498909 z"
       id="path836-5-6-6"
       inkscape:connector-curvature="0"
       sodipodi:nodetypes="sscs" />
  </g>
</svg>
