<?xml version="1.0" encoding="UTF-8" standalone="no"?>
<!-- Created with Inkscape (http://www.inkscape.org/) -->

<svg
   xmlns:dc="http://purl.org/dc/elements/1.1/"
   xmlns:cc="http://creativecommons.org/ns#"
   xmlns:rdf="http://www.w3.org/1999/02/22-rdf-syntax-ns#"
   xmlns:svg="http://www.w3.org/2000/svg"
   xmlns="http://www.w3.org/2000/svg"
   xmlns:sodipodi="http://sodipodi.sourceforge.net/DTD/sodipodi-0.dtd"
   xmlns:inkscape="http://www.inkscape.org/namespaces/inkscape"
   width="204mm"
   height="204mm"
   viewBox="0 0 204 204"
   version="1.1"
   id="svg8"
   inkscape:version="0.92.2 (5c3e80d, 2017-08-06)"
   sodipodi:docname="levelincomplete.svg"
   inkscape:export-filename="C:\Users\Kitsune\Desktop\projectGraphics\levelincomplete.png"
   inkscape:export-xdpi="76.190002"
   inkscape:export-ydpi="76.190002">
  <defs
     id="defs2">
    <marker
       inkscape:stockid="Tail"
       orient="auto"
       refY="0"
       refX="0"
       id="Tail"
       style="overflow:visible"
       inkscape:isstock="true">
      <g
         id="g4873"
         transform="scale(-1.2)"
         style="fill:#00be81;fill-opacity:1;stroke:#007500;stroke-opacity:1">
        <path
           id="path4861"
           d="M -3.8048674,-3.9585227 0.54352094,0"
           style="fill:#00be81;fill-opacity:1;fill-rule:evenodd;stroke:#007500;stroke-width:0.80000001;stroke-linecap:round;stroke-opacity:1"
           inkscape:connector-curvature="0" />
        <path
           id="path4863"
           d="M -1.2866832,-3.9585227 3.0617053,0"
           style="fill:#00be81;fill-opacity:1;fill-rule:evenodd;stroke:#007500;stroke-width:0.80000001;stroke-linecap:round;stroke-opacity:1"
           inkscape:connector-curvature="0" />
        <path
           id="path4865"
           d="M 1.3053582,-3.9585227 5.6537466,0"
           style="fill:#00be81;fill-opacity:1;fill-rule:evenodd;stroke:#007500;stroke-width:0.80000001;stroke-linecap:round;stroke-opacity:1"
           inkscape:connector-curvature="0" />
        <path
           id="path4867"
           d="M -3.8048674,4.1775838 0.54352094,0.21974226"
           style="fill:#00be81;fill-opacity:1;fill-rule:evenodd;stroke:#007500;stroke-width:0.80000001;stroke-linecap:round;stroke-opacity:1"
           inkscape:connector-curvature="0" />
        <path
           id="path4869"
           d="M -1.2866832,4.1775838 3.0617053,0.21974226"
           style="fill:#00be81;fill-opacity:1;fill-rule:evenodd;stroke:#007500;stroke-width:0.80000001;stroke-linecap:round;stroke-opacity:1"
           inkscape:connector-curvature="0" />
        <path
           id="path4871"
           d="M 1.3053582,4.1775838 5.6537466,0.21974226"
           style="fill:#00be81;fill-opacity:1;fill-rule:evenodd;stroke:#007500;stroke-width:0.80000001;stroke-linecap:round;stroke-opacity:1"
           inkscape:connector-curvature="0" />
      </g>
    </marker>
    <marker
       inkscape:stockid="Arrow1Lstart"
       orient="auto"
       refY="0"
       refX="0"
       id="Arrow1Lstart"
       style="overflow:visible"
       inkscape:isstock="true">
      <path
         id="path4825"
         d="M 0,0 5,-5 -12.5,0 5,5 Z"
         style="fill:#00be81;fill-opacity:1;fill-rule:evenodd;stroke:#007500;stroke-width:1.00000003pt;stroke-opacity:1"
         transform="matrix(0.8,0,0,0.8,10,0)"
         inkscape:connector-curvature="0" />
    </marker>
    <inkscape:path-effect
       effect="bspline"
       id="path-effect4520"
       is_visible="true"
       weight="33.333333"
       steps="2"
       helper_size="0"
       apply_no_weight="true"
       apply_with_weight="true"
       only_selected="false" />
  </defs>
  <sodipodi:namedview
     id="base"
     pagecolor="#ffffff"
     bordercolor="#666666"
     borderopacity="1.0"
     inkscape:pageopacity="0.0"
     inkscape:pageshadow="2"
     inkscape:zoom="0.66"
     inkscape:cx="-193.64448"
     inkscape:cy="466.14911"
     inkscape:document-units="mm"
     inkscape:current-layer="layer3"
     showgrid="false"
     inkscape:window-width="1920"
     inkscape:window-height="1051"
     inkscape:window-x="-9"
     inkscape:window-y="-9"
     inkscape:window-maximized="1" />
  <metadata
     id="metadata5">
    <rdf:RDF>
      <cc:Work
         rdf:about="">
        <dc:format>image/svg+xml</dc:format>
        <dc:type
           rdf:resource="http://purl.org/dc/dcmitype/StillImage" />
        <dc:title></dc:title>
      </cc:Work>
    </rdf:RDF>
  </metadata>
  <g
     inkscape:label="Layer 1"
     inkscape:groupmode="layer"
     id="layer1"
     style="display:inline"
     transform="translate(0,-93)"
     sodipodi:insensitive="true">
    <path
       sodipodi:type="star"
       style="fill:#9d3c04;fill-opacity:1;stroke:none;stroke-width:3.66499996;stroke-miterlimit:4;stroke-dasharray:none;stroke-opacity:1"
       id="path4512"
       sodipodi:sides="8"
       sodipodi:cx="113.39283"
       sodipodi:cy="122.375"
       sodipodi:r1="128.73849"
       sodipodi:r2="88.829559"
       sodipodi:arg1="1.2044657"
       sodipodi:arg2="1.5971648"
       inkscape:flatsided="false"
       inkscape:rounded="0.64"
       inkscape:randomized="0"
       d="M 159.50592,242.57143 C 125.00525,255.80754 147.9905,212.14795 111.0508,211.17368 74.111101,210.19941 94.762993,255.00991 61.007996,239.97359 27.252999,224.93727 74.378019,210.31831 48.946617,183.50908 23.515217,156.69986 6.4324995,202.98876 -6.8036043,168.48809 -20.039709,133.98742 23.619882,156.97267 24.59415,120.03297 25.568419,83.093271 -19.242083,103.74516 -4.205764,69.990167 10.830555,36.235169 25.44952,83.360189 52.258746,57.928787 79.06797,32.497387 32.779068,15.41467 67.279738,2.1785659 101.78041,-11.057539 78.795156,32.602052 115.73486,33.57632 c 36.9397,0.974269 16.28781,-43.836233 50.0428,-28.7999139 33.755,15.0363189 -13.37002,29.6552839 12.06138,56.4645099 25.4314,26.809224 42.51412,-19.479678 55.75022,15.020992 13.23611,34.500672 -30.42348,11.515419 -31.39775,48.455122 -0.97427,36.9397 43.83623,16.28781 28.79991,50.0428 -15.03632,33.755 -29.65528,-13.37002 -56.46451,12.06138 -26.80922,25.4314 19.47968,42.51412 -15.02099,55.75022 z"
       inkscape:transform-center-x="6.3374843e-006"
       transform="matrix(-0.66905572,-0.08934514,0.08934514,-0.66905572,165.2966,285.93955)"
       inkscape:transform-center-y="-4.967568e-006" />
    <path
       sodipodi:type="star"
       style="display:inline;fill:#ae2e1b;fill-opacity:1;stroke:none;stroke-width:1.77699995;stroke-linejoin:miter;stroke-miterlimit:5.80000019;stroke-dasharray:none;stroke-dashoffset:0;stroke-opacity:1"
       id="path893-3"
       sodipodi:sides="8"
       sodipodi:cx="115.99497"
       sodipodi:cy="121.67119"
       sodipodi:r1="89.971031"
       sodipodi:r2="62.080017"
       sodipodi:arg1="0.76859302"
       sodipodi:arg2="1.1612921"
       inkscape:flatsided="false"
       inkscape:rounded="0.64"
       inkscape:randomized="0"
       d="m 180.67419,184.21225 c -17.95151,18.56525 -16.27212,-15.87623 -39.96177,-5.59392 -23.68966,10.2823 2.61571,32.57721 -23.20554,33.01119 -25.821254,0.43397 -0.27994,-22.73232 -24.301743,-32.21275 -24.021798,-9.48043 -21.185984,24.88516 -39.75123,6.93364 -18.565245,-17.95152 15.876229,-16.27213 5.593928,-39.96178 -10.282302,-23.68965 -32.577219,2.61571 -33.01119,-23.20554 -0.43397,-25.821248 22.732319,-0.27994 32.212748,-24.301736 9.480428,-24.021799 -24.88516,-21.185985 -6.933642,-39.75123 17.951518,-18.565246 16.272125,15.876228 39.961777,5.593927 23.689652,-10.282302 -2.615712,-32.577219 23.205542,-33.01119 25.82125,-0.43397 0.27994,22.73232 24.30174,32.212748 24.0218,9.480428 21.18598,-24.88516 39.75123,-6.933642 18.56524,17.951518 -15.87623,16.272126 -5.59393,39.961777 10.2823,23.689656 32.57722,-2.615712 33.01119,23.205536 0.43397,25.82125 -22.73232,0.27994 -32.21275,24.30174 -9.48043,24.0218 24.88516,21.18599 6.93364,39.75123 z"
       transform="matrix(0.6589429,-0.14632966,0.14632966,0.6589429,6.7114989,131.15521)" />
    <path
       sodipodi:type="star"
       style="fill:#3e4237;fill-opacity:1;stroke:none;stroke-width:1.77699995;stroke-linejoin:miter;stroke-miterlimit:5.80000019;stroke-dasharray:none;stroke-dashoffset:0;stroke-opacity:1"
       id="path893"
       sodipodi:sides="8"
       sodipodi:cx="115.99497"
       sodipodi:cy="121.67119"
       sodipodi:r1="89.971031"
       sodipodi:r2="62.080017"
       sodipodi:arg1="0.76859302"
       sodipodi:arg2="1.1612921"
       inkscape:flatsided="false"
       inkscape:rounded="0.64"
       inkscape:randomized="0"
       d="m 180.67419,184.21225 c -17.95151,18.56525 -16.27212,-15.87623 -39.96177,-5.59392 -23.68966,10.2823 2.61571,32.57721 -23.20554,33.01119 -25.821254,0.43397 -0.27994,-22.73232 -24.301743,-32.21275 -24.021798,-9.48043 -21.185984,24.88516 -39.75123,6.93364 -18.565245,-17.95152 15.876229,-16.27213 5.593928,-39.96178 -10.282302,-23.68965 -32.577219,2.61571 -33.01119,-23.20554 -0.43397,-25.821248 22.732319,-0.27994 32.212748,-24.301736 9.480428,-24.021799 -24.88516,-21.185985 -6.933642,-39.75123 17.951518,-18.565246 16.272125,15.876228 39.961777,5.593927 23.689652,-10.282302 -2.615712,-32.577219 23.205542,-33.01119 25.82125,-0.43397 0.27994,22.73232 24.30174,32.212748 24.0218,9.480428 21.18598,-24.88516 39.75123,-6.933642 18.56524,17.951518 -15.87623,16.272126 -5.59393,39.961777 10.2823,23.689656 32.57722,-2.615712 33.01119,23.205536 0.43397,25.82125 -22.73232,0.27994 -32.21275,24.30174 -9.48043,24.0218 24.88516,21.18599 6.93364,39.75123 z"
       transform="matrix(0.47750842,-0.106039,0.106039,0.47750842,32.476952,146.75664)" />
  </g>
  <g
     inkscape:groupmode="layer"
     id="layer2"
     inkscape:label="Layer 2"
     style="display:inline"
     transform="translate(0,-93)"
     sodipodi:insensitive="true">
    <circle
       style="display:inline;fill:#ffffff;fill-opacity:1;stroke:none;stroke-width:2.47385621;stroke-miterlimit:4;stroke-dasharray:none;stroke-opacity:1"
       id="path4516"
       cx="100.87438"
       cy="194.44302"
       r="20.920822" />
  </g>
  <g
     inkscape:groupmode="layer"
     id="layer3"
     inkscape:label="Layer 3"
     style="display:inline"
     transform="translate(0,-93)" />
</svg>
