<?xml version="1.0" encoding="UTF-8" standalone="no"?>
<!-- Created with Inkscape (http://www.inkscape.org/) -->

<svg
   xmlns:dc="http://purl.org/dc/elements/1.1/"
   xmlns:cc="http://creativecommons.org/ns#"
   xmlns:rdf="http://www.w3.org/1999/02/22-rdf-syntax-ns#"
   xmlns:svg="http://www.w3.org/2000/svg"
   xmlns="http://www.w3.org/2000/svg"
   xmlns:sodipodi="http://sodipodi.sourceforge.net/DTD/sodipodi-0.dtd"
   xmlns:inkscape="http://www.inkscape.org/namespaces/inkscape"
   width="210mm"
   height="297mm"
   viewBox="0 0 210 297"
   version="1.1"
   id="svg8"
   inkscape:version="0.92.2 (5c3e80d, 2017-08-06)"
   sodipodi:docname="levelcomplete.svg">
  <defs
     id="defs2">
    <marker
       inkscape:stockid="Tail"
       orient="auto"
       refY="0.0"
       refX="0.0"
       id="Tail"
       style="overflow:visible"
       inkscape:isstock="true">
      <g
         id="g4873"
         transform="scale(-1.2)"
         style="stroke:#007500;stroke-opacity:1;fill:#00be81;fill-opacity:1">
        <path
           id="path4861"
           d="M -3.8048674,-3.9585227 L 0.54352094,0"
           style="fill:#00be81;fill-rule:evenodd;stroke:#007500;stroke-width:0.8;stroke-linecap:round;stroke-opacity:1;fill-opacity:1" />
        <path
           id="path4863"
           d="M -1.2866832,-3.9585227 L 3.0617053,0"
           style="fill:#00be81;fill-rule:evenodd;stroke:#007500;stroke-width:0.8;stroke-linecap:round;stroke-opacity:1;fill-opacity:1" />
        <path
           id="path4865"
           d="M 1.3053582,-3.9585227 L 5.6537466,0"
           style="fill:#00be81;fill-rule:evenodd;stroke:#007500;stroke-width:0.8;stroke-linecap:round;stroke-opacity:1;fill-opacity:1" />
        <path
           id="path4867"
           d="M -3.8048674,4.1775838 L 0.54352094,0.21974226"
           style="fill:#00be81;fill-rule:evenodd;stroke:#007500;stroke-width:0.8;stroke-linecap:round;stroke-opacity:1;fill-opacity:1" />
        <path
           id="path4869"
           d="M -1.2866832,4.1775838 L 3.0617053,0.21974226"
           style="fill:#00be81;fill-rule:evenodd;stroke:#007500;stroke-width:0.8;stroke-linecap:round;stroke-opacity:1;fill-opacity:1" />
        <path
           id="path4871"
           d="M 1.3053582,4.1775838 L 5.6537466,0.21974226"
           style="fill:#00be81;fill-rule:evenodd;stroke:#007500;stroke-width:0.8;stroke-linecap:round;stroke-opacity:1;fill-opacity:1" />
      </g>
    </marker>
    <marker
       inkscape:stockid="Arrow1Lstart"
       orient="auto"
       refY="0.0"
       refX="0.0"
       id="Arrow1Lstart"
       style="overflow:visible"
       inkscape:isstock="true">
      <path
         id="path4825"
         d="M 0.0,0.0 L 5.0,-5.0 L -12.5,0.0 L 5.0,5.0 L 0.0,0.0 z "
         style="fill-rule:evenodd;stroke:#007500;stroke-width:1pt;stroke-opacity:1;fill:#00be81;fill-opacity:1"
         transform="scale(0.8) translate(12.5,0)" />
    </marker>
    <inkscape:path-effect
       effect="bspline"
       id="path-effect4520"
       is_visible="true"
       weight="33.333333"
       steps="2"
       helper_size="0"
       apply_no_weight="true"
       apply_with_weight="true"
       only_selected="false" />
  </defs>
  <sodipodi:namedview
     id="base"
     pagecolor="#ffffff"
     bordercolor="#666666"
     borderopacity="1.0"
     inkscape:pageopacity="0.0"
     inkscape:pageshadow="2"
     inkscape:zoom="0.49497475"
     inkscape:cx="148.76503"
     inkscape:cy="730.10763"
     inkscape:document-units="mm"
     inkscape:current-layer="layer2"
     showgrid="false"
     inkscape:window-width="1920"
     inkscape:window-height="1051"
     inkscape:window-x="-9"
     inkscape:window-y="-9"
     inkscape:window-maximized="1" />
  <metadata
     id="metadata5">
    <rdf:RDF>
      <cc:Work
         rdf:about="">
        <dc:format>image/svg+xml</dc:format>
        <dc:type
           rdf:resource="http://purl.org/dc/dcmitype/StillImage" />
        <dc:title></dc:title>
      </cc:Work>
    </rdf:RDF>
  </metadata>
  <g
     inkscape:label="Layer 1"
     inkscape:groupmode="layer"
     id="layer1"
     sodipodi:insensitive="true"
     style="display:inline">
    <path
       sodipodi:type="star"
       style="fill:#9d3c04;fill-opacity:1;stroke:none;stroke-width:3.66499996;stroke-miterlimit:4;stroke-dasharray:none;stroke-opacity:1"
       id="path4512"
       sodipodi:sides="8"
       sodipodi:cx="113.39283"
       sodipodi:cy="122.375"
       sodipodi:r1="128.73849"
       sodipodi:r2="88.829559"
       sodipodi:arg1="1.2044657"
       sodipodi:arg2="1.5971648"
       inkscape:flatsided="false"
       inkscape:rounded="0.64"
       inkscape:randomized="0"
       d="M 159.50592,242.57143 C 125.00525,255.80754 147.9905,212.14795 111.0508,211.17368 74.111101,210.19941 94.762993,255.00991 61.007996,239.97359 27.252999,224.93727 74.378019,210.31831 48.946617,183.50908 23.515217,156.69986 6.4324995,202.98876 -6.8036043,168.48809 -20.039709,133.98742 23.619882,156.97267 24.59415,120.03297 25.568419,83.093271 -19.242083,103.74516 -4.205764,69.990167 10.830555,36.235169 25.44952,83.360189 52.258746,57.928787 79.06797,32.497387 32.779068,15.41467 67.279738,2.1785659 101.78041,-11.057539 78.795156,32.602052 115.73486,33.57632 c 36.9397,0.974269 16.28781,-43.836233 50.0428,-28.7999139 33.755,15.0363189 -13.37002,29.6552839 12.06138,56.4645099 25.4314,26.809224 42.51412,-19.479678 55.75022,15.020992 13.23611,34.500672 -30.42348,11.515419 -31.39775,48.455122 -0.97427,36.9397 43.83623,16.28781 28.79991,50.0428 -15.03632,33.755 -29.65528,-13.37002 -56.46451,12.06138 -26.80922,25.4314 19.47968,42.51412 -15.02099,55.75022 z"
       inkscape:transform-center-x="1.4779165e-005"
       transform="rotate(-172.39377,113.39282,122.375)"
       inkscape:transform-center-y="-1.3097461e-006" />
    <circle
       style="fill:#ffffff;fill-opacity:1;stroke:none;stroke-width:3.66499996;stroke-miterlimit:4;stroke-dasharray:none;stroke-opacity:1"
       id="path4516"
       cx="114.14881"
       cy="123.13094"
       r="30.994047" />
  </g>
  <g
     inkscape:groupmode="layer"
     id="layer2"
     inkscape:label="Layer 2">
    <path
       style="fill:#00be81;fill-opacity:1;stroke:#007500;stroke-width:1.77699995;stroke-linecap:butt;stroke-linejoin:miter;stroke-miterlimit:5.80000019;stroke-dasharray:none;stroke-dashoffset:0;stroke-opacity:1"
       d="m 20.38623,127.65528 36.0969,76.50802 c 71.80985,-61.12159 73.9055,-94.13194 140.22619,-178.856485 0,0 -16.63047,-1.13617 -32.93391,-3.040053 -9.0586,-1.057845 -56.41108,112.735488 -101.44416,147.768668 -9.287336,-20.13907 -2.23136,-6.85712 -20.615781,-44.61839 -11.390776,2.02671 -21.329239,2.23824 -21.329239,2.23824 z"
       id="path4523"
       inkscape:connector-curvature="0"
       sodipodi:nodetypes="cccsccc" />
  </g>
</svg>
